<?xml version="1.0" encoding="UTF-8" standalone="no"?>
<svg
   xmlns:dc="http://purl.org/dc/elements/1.1/"
   xmlns:cc="http://creativecommons.org/ns#"
   xmlns:rdf="http://www.w3.org/1999/02/22-rdf-syntax-ns#"
   xmlns:svg="http://www.w3.org/2000/svg"
   xmlns="http://www.w3.org/2000/svg"
   xmlns:sodipodi="http://sodipodi.sourceforge.net/DTD/sodipodi-0.dtd"
   xmlns:inkscape="http://www.inkscape.org/namespaces/inkscape"
   id="water"
   viewBox="0 0 285.93 250"
   version="1.1"
   sodipodi:docname="second-aether.svg"
   inkscape:version="0.92.0 r15299">
  <metadata
     id="metadata19">
    <rdf:RDF>
      <cc:Work
         rdf:about="">
        <dc:format>image/svg+xml</dc:format>
        <dc:type
           rdf:resource="http://purl.org/dc/dcmitype/StillImage" />
        <dc:title>Second Aether symbol</dc:title>
      </cc:Work>
    </rdf:RDF>
  </metadata>
  <defs
     id="defs17" />
  <sodipodi:namedview
     pagecolor="#ffffff"
     bordercolor="#666666"
     borderopacity="1"
     objecttolerance="10"
     gridtolerance="10"
     guidetolerance="10"
     inkscape:pageopacity="0"
     inkscape:pageshadow="2"
     inkscape:window-width="1920"
     inkscape:window-height="1017"
     id="namedview15"
     showgrid="false"
     inkscape:zoom="3.392"
     inkscape:cx="142.965"
     inkscape:cy="125"
     inkscape:window-x="-8"
     inkscape:window-y="-8"
     inkscape:window-maximized="1"
     inkscape:current-layer="water" />
  <title
     id="title10">Second Aether symbol</title>
  <path
     d="m 1.22,13.46 134,232.06 a 9,9 0 0 0 15.54,0 l 134,-232.06 A 9,9 0 0 0 276.94,-3.2408309e-8 H 9 A 9,9 0 0 0 1.22,13.46 Z M 261.58,24.56 151.93,214.47 42.29,24.56 Z"
     id="path12"
     inkscape:connector-curvature="0" />
  <path
     id="path23"
     d="M 284.43352,236.52415 150.45352,4.4741469 a 9,9 0 0 0 -15.54,0 L 0.9435172,236.52415 a 9,9 0 0 0 7.78,13.46 H 276.72352 a 9,9 0 0 0 7.71,-13.46 z m -260.360003,-11.1 109.650003,-189.910003 109.64,189.910003 z"
     inkscape:connector-curvature="0" />
</svg>
